<?xml version="1.0" standalone="no"?>
<!DOCTYPE svg PUBLIC "-//W3C//DTD SVG 20010904//EN"
 "http://www.w3.org/TR/2001/REC-SVG-20010904/DTD/svg10.dtd">
<svg version="1.0" xmlns="http://www.w3.org/2000/svg"
 width="260.000000pt" height="260.000000pt" viewBox="0 0 260.000000 260.000000"
 preserveAspectRatio="xMidYMid meet">
<metadata>
Created by potrace 1.14, written by Peter Selinger 2001-2017
</metadata>
<g transform="translate(0.000000,260.000000) scale(0.100000,-0.100000)"
fill="#000000" stroke="none">
<path d="M625 2488 c-202 -22 -395 -166 -476 -355 -43 -100 -49 -166 -49 -509
l0 -324 258 -1 257 -1 -65 -17 c-176 -47 -305 -154 -384 -316 -52 -107 -70
-193 -62 -301 12 -168 88 -317 215 -421 63 -52 169 -104 251 -123 72 -17 708
-20 718 -3 4 6 7 125 6 265 l-1 253 17 -65 c40 -159 129 -284 263 -371 96 -62
200 -91 327 -90 258 1 484 173 566 431 15 47 17 104 19 408 l3 352 -262 1
-261 0 73 19 c109 29 187 74 273 160 123 122 179 260 173 430 -3 101 -7 124
-41 210 -73 184 -235 319 -432 360 -78 16 -698 21 -710 5 -5 -5 -8 -115 -7
-243 1 -127 -1 -232 -4 -232 -3 0 -12 21 -18 47 -75 279 -353 464 -647 431z
m690 -744 c33 -115 76 -187 165 -274 89 -87 221 -155 317 -162 44 -3 33 -10
-40 -25 -101 -20 -200 -76 -282 -157 -39 -39 -84 -93 -99 -121 -35 -64 -76
-184 -77 -227 0 -23 -5 -12 -15 37 -34 158 -140 313 -271 394 -57 35 -174 80
-210 81 -13 0 -23 5 -23 10 0 6 9 10 20 10 11 0 22 0 25 0 3 0 31 10 62 22
207 76 357 248 394 449 10 52 15 65 17 44 2 -16 9 -53 17 -81z"/>
</g>
</svg>
